<svg width="700" height="925" viewBox="0 0 700 925" fill="none" xmlns="http://www.w3.org/2000/svg">
<path fill-rule="evenodd" clip-rule="evenodd" d="M314.632 396.937C258.673 470.738 224.388 518.785 224.388 574.439C224.388 643.71 280.729 700.078 350 700.104C419.271 700.078 475.612 643.71 475.612 574.439C475.612 518.785 441.314 470.724 385.368 396.937L384.916 396.34C373.723 381.572 362.06 366.185 350.423 350.053H349.579C337.785 333.702 325.978 318.118 314.633 303.168C258.675 229.38 224.389 181.32 224.389 125.665C224.389 92.106 237.464 60.5411 261.197 36.808C284.917 13.0882 316.455 0 350.001 0C383.547 0.0131836 415.086 13.0882 438.806 36.808C462.539 60.5411 475.614 92.0928 475.614 125.665C475.614 181.32 441.315 229.38 385.37 303.168L384.915 303.768C373.722 318.535 362.061 333.92 350.425 350.052H627.639C636.197 363.457 644.385 377.271 651.992 391.641C684.297 452.684 700 512.472 700 574.439C700 621.655 690.729 667.509 672.45 710.736C654.805 752.431 629.58 789.86 597.474 821.966C565.367 854.085 527.939 879.311 486.244 896.942C443.044 915.208 397.228 924.479 350.053 924.492H349.96C302.785 924.479 256.956 915.208 213.756 896.942C172.061 879.298 134.633 854.072 102.526 821.966C70.4068 789.86 45.1813 752.431 27.5499 710.736C9.27135 667.496 0 621.641 0 574.439C0 512.472 15.7032 452.684 48.0076 391.641C55.6149 377.285 63.8032 363.457 72.3614 350.052H349.577C337.783 366.402 325.976 381.986 314.632 396.937Z" fill="url(#grad)"/>
<defs>
<linearGradient id="grad" x1="699.781" y1="0" x2="699.781" y2="924.492" gradientUnits="userSpaceOnUse">
<stop offset="0.177366" stop-color="#0AF2AD"/>
<stop offset="0.822634" stop-color="#A8C4EF"/>
</linearGradient>
</defs>
</svg>
